<svg width="35" height="27" viewBox="0 0 35 27" fill="none" xmlns="http://www.w3.org/2000/svg">
<path d="M31.9688 0L34.4531 3.09375C32.3906 4.6875 30.7188 6.40625 29.4375 8.25C28.1875 10.0625 27.2656 12.1406 26.6719 14.4844C28.5156 15.6406 29.75 16.5938 30.375 17.3438C31.0312 18.0938 31.3594 18.875 31.3594 19.6875C31.3594 20.3125 31.1562 20.9219 30.75 21.5156C30.3438 22.0781 29.4062 22.9688 27.9375 24.1875L25.125 26.3906C22.625 24.4844 20.9531 22.9375 20.1094 21.75C19.2969 20.5625 18.8906 19.2656 18.8906 17.8594C18.8906 15.5781 20.0625 12.7969 22.4062 9.51562C24.7812 6.23438 27.9688 3.0625 31.9688 0ZM13.0312 0L15.5625 3.09375C13.5 4.6875 11.8438 6.42188 10.5938 8.29688C9.34375 10.1406 8.4375 12.2031 7.875 14.4844C9.625 15.6094 10.8281 16.5469 11.4844 17.2969C12.1406 18.0469 12.4688 18.8438 12.4688 19.6875C12.4688 20.3125 12.25 20.9219 11.8125 21.5156C11.4062 22.0781 10.4688 22.9688 9 24.1875L6.32812 26.3906C3.76562 24.4531 2.0625 22.8906 1.21875 21.7031C0.40625 20.5156 0 19.2344 0 17.8594C0 15.5781 1.17188 12.7969 3.51562 9.51562C5.89062 6.23438 9.0625 3.0625 13.0312 0Z" fill="#2E2E2E"/>
</svg>
