<svg width="66" height="66" viewBox="0 0 66 66" fill="none" xmlns="http://www.w3.org/2000/svg">
<path d="M66 33C66 51.2254 51.2254 66 33 66C14.7746 66 0 51.2254 0 33C0 14.7746 14.7746 0 33 0C51.2254 0 66 14.7746 66 33Z" fill="#D9D9D9"/>
<path d="M23.16 17C24.7333 17 25.9467 17.1733 26.8 17.52C27.6533 17.84 28.3867 18.1867 29 18.56C29.32 18.7467 29.5733 18.8933 29.76 19C29.9733 19.08 30.1733 19.12 30.36 19.12C30.6267 19.12 30.8133 18.9733 30.92 18.68C31.0533 18.3867 31.16 17.9467 31.24 17.36H32.16C32.1333 17.8667 32.0933 18.48 32.04 19.2C32.0133 19.8933 31.9867 20.8133 31.96 21.96C31.96 23.1067 31.96 24.6133 31.96 26.48H31.04C30.9333 25.0933 30.6133 23.7467 30.08 22.44C29.5467 21.1333 28.7867 20.0667 27.8 19.24C26.84 18.3867 25.6533 17.96 24.24 17.96C22.96 17.96 21.9067 18.32 21.08 19.04C20.2533 19.76 19.84 20.76 19.84 22.04C19.84 23.1067 20.1067 24.0267 20.64 24.8C21.1733 25.5467 21.9467 26.28 22.96 27C24 27.72 25.2533 28.5867 26.72 29.6C28 30.4267 29.1467 31.2533 30.16 32.08C31.1733 32.9067 31.9867 33.84 32.6 34.88C33.2133 35.92 33.52 37.16 33.52 38.6C33.52 40.36 33.0533 41.8133 32.12 42.96C31.2133 44.1067 30.0133 44.9733 28.52 45.56C27.0267 46.12 25.3867 46.4 23.6 46.4C21.9467 46.4 20.6267 46.24 19.64 45.92C18.6533 45.6 17.8267 45.2667 17.16 44.92C16.5733 44.5467 16.12 44.36 15.8 44.36C15.5333 44.36 15.3333 44.5067 15.2 44.8C15.0933 45.0933 15 45.5333 14.92 46.12H14C14.0533 45.48 14.08 44.7333 14.08 43.88C14.1067 43.0267 14.12 41.92 14.12 40.56C14.1467 39.1733 14.16 37.4267 14.16 35.32H15.08C15.1867 37.08 15.48 38.7333 15.96 40.28C16.4667 41.8 17.2267 43.0267 18.24 43.96C19.28 44.8933 20.6533 45.36 22.36 45.36C23.2933 45.36 24.12 45.2 24.84 44.88C25.5867 44.5333 26.1867 44.0267 26.64 43.36C27.0933 42.6933 27.32 41.8667 27.32 40.88C27.32 39.76 27.0533 38.7867 26.52 37.96C26.0133 37.1333 25.3067 36.36 24.4 35.64C23.52 34.92 22.4933 34.1867 21.32 33.44C20.0667 32.6133 18.8933 31.7867 17.8 30.96C16.7067 30.1333 15.8267 29.1867 15.16 28.12C14.52 27.0533 14.2 25.7867 14.2 24.32C14.2 22.64 14.6133 21.2667 15.44 20.2C16.2933 19.1067 17.4 18.3067 18.76 17.8C20.1467 17.2667 21.6133 17 23.16 17Z" fill="black"/>
<path d="M37.2794 25C37.5194 25.0533 37.9594 25.0933 38.5994 25.12C39.2394 25.1467 39.9727 25.1733 40.7994 25.2C41.626 25.2 42.4394 25.2 43.2394 25.2H54.5194V26.04C54.0127 27.24 53.3594 28.5333 52.5594 29.92C51.786 31.28 50.9994 32.7733 50.1994 34.4C49.426 36 48.7727 37.7333 48.2394 39.6C47.7327 41.44 47.4794 43.44 47.4794 45.6C47.4794 45.76 47.4927 46.0533 47.5194 46.48C47.5727 46.9067 47.6127 47.3333 47.6394 47.76C47.666 48.2133 47.6794 48.5733 47.6794 48.84C47.6794 49.5867 47.4394 50.2533 46.9594 50.84C46.4794 51.4533 45.746 51.76 44.7594 51.76C43.7727 51.76 43.0394 51.4267 42.5594 50.76C42.0794 50.0933 41.8394 49.2533 41.8394 48.24C41.8394 46.7733 42.106 45.32 42.6394 43.88C43.1727 42.44 43.866 41.0267 44.7194 39.64C45.5727 38.2267 46.4927 36.8533 47.4794 35.52C48.466 34.1867 49.426 32.9067 50.3594 31.68C51.3194 30.4533 52.146 29.2933 52.8394 28.2L51.9194 30.04H40.9594C39.866 30.04 39.1727 30.1733 38.8794 30.44C38.586 30.7067 38.386 31.1733 38.2794 31.84H37.4394C37.4394 30.08 37.426 28.6933 37.3994 27.68C37.3727 26.64 37.3327 25.7467 37.2794 25Z" fill="black"/>
</svg>
