<svg width="189" height="35" viewBox="0 0 189 35" fill="none" xmlns="http://www.w3.org/2000/svg">
<path d="M9.16 0.0400019C10.7333 0.0400019 11.9467 0.213335 12.8 0.560002C13.6533 0.880001 14.3867 1.22667 15 1.6C15.32 1.78667 15.5733 1.93334 15.76 2.04C15.9733 2.12 16.1733 2.16 16.36 2.16C16.6267 2.16 16.8133 2.01333 16.92 1.72C17.0533 1.42667 17.16 0.986667 17.24 0.400002H18.16C18.1333 0.906668 18.0933 1.52 18.04 2.24C18.0133 2.93333 17.9867 3.85333 17.96 5C17.96 6.14667 17.96 7.65333 17.96 9.52H17.04C16.9333 8.13334 16.6133 6.78667 16.08 5.48C15.5467 4.17334 14.7867 3.10667 13.8 2.28C12.84 1.42667 11.6533 1 10.24 1C8.96 1 7.90667 1.36 7.08 2.08C6.25333 2.8 5.84 3.8 5.84 5.08C5.84 6.14667 6.10667 7.06667 6.64 7.84C7.17333 8.58667 7.94667 9.32 8.96 10.04C10 10.76 11.2533 11.6267 12.72 12.64C14 13.4667 15.1467 14.2933 16.16 15.12C17.1733 15.9467 17.9867 16.88 18.6 17.92C19.2133 18.96 19.52 20.2 19.52 21.64C19.52 23.4 19.0533 24.8533 18.12 26C17.2133 27.1467 16.0133 28.0133 14.52 28.6C13.0267 29.16 11.3867 29.44 9.6 29.44C7.94667 29.44 6.62667 29.28 5.64 28.96C4.65333 28.64 3.82667 28.3067 3.16 27.96C2.57333 27.5867 2.12 27.4 1.8 27.4C1.53333 27.4 1.33333 27.5467 1.2 27.84C1.09333 28.1333 1 28.5733 0.92 29.16H0C0.0533333 28.52 0.08 27.7733 0.08 26.92C0.106667 26.0667 0.12 24.96 0.12 23.6C0.146667 22.2133 0.16 20.4667 0.16 18.36H1.08C1.18667 20.12 1.48 21.7733 1.96 23.32C2.46667 24.84 3.22667 26.0667 4.24 27C5.28 27.9333 6.65333 28.4 8.36 28.4C9.29333 28.4 10.12 28.24 10.84 27.92C11.5867 27.5733 12.1867 27.0667 12.64 26.4C13.0933 25.7333 13.32 24.9067 13.32 23.92C13.32 22.8 13.0533 21.8267 12.52 21C12.0133 20.1733 11.3067 19.4 10.4 18.68C9.52 17.96 8.49333 17.2267 7.32 16.48C6.06667 15.6533 4.89333 14.8267 3.8 14C2.70667 13.1733 1.82667 12.2267 1.16 11.16C0.52 10.0933 0.2 8.82667 0.2 7.36C0.2 5.68 0.613333 4.30667 1.44 3.24C2.29333 2.14667 3.4 1.34667 4.76 0.840001C6.14667 0.306668 7.61333 0.0400019 9.16 0.0400019Z" fill="black"/>
<path d="M48.0394 0.560002C47.9327 1.92 47.8527 3.22667 47.7994 4.48C47.7727 5.73334 47.7594 6.69333 47.7594 7.36C47.7594 7.94667 47.7727 8.50667 47.7994 9.04C47.826 9.57334 47.8527 10.0267 47.8794 10.4H46.9594C46.5327 8.16 45.986 6.38667 45.3194 5.08C44.6794 3.77333 43.906 2.85333 42.9994 2.32C42.0927 1.76 41.026 1.48 39.7994 1.48H38.8794V24.32C38.8794 25.3867 38.986 26.1867 39.1994 26.72C39.4394 27.2533 39.866 27.6133 40.4794 27.8C41.0927 27.96 41.986 28.0533 43.1594 28.08V28.88C42.3327 28.8533 41.226 28.8267 39.8394 28.8C38.4794 28.7733 37.0527 28.76 35.5594 28.76C34.0927 28.76 32.706 28.7733 31.3994 28.8C30.0927 28.8267 29.0394 28.8533 28.2394 28.88V28.08C29.4394 28.0533 30.346 27.96 30.9594 27.8C31.5727 27.6133 31.986 27.2533 32.1994 26.72C32.4127 26.1867 32.5194 25.3867 32.5194 24.32V1.48H31.6394C30.4127 1.48 29.346 1.76 28.4394 2.32C27.5327 2.85333 26.7594 3.77333 26.1194 5.08C25.4794 6.36 24.9194 8.13333 24.4394 10.4H23.5194C23.5727 10.0267 23.5994 9.57334 23.5994 9.04C23.626 8.50667 23.6394 7.94667 23.6394 7.36C23.6394 6.69333 23.6127 5.73334 23.5594 4.48C23.5327 3.22667 23.466 1.92 23.3594 0.560002C24.586 0.586669 25.9194 0.613335 27.3594 0.640001C28.826 0.666668 30.2927 0.680001 31.7594 0.680001C33.226 0.680001 34.546 0.680001 35.7194 0.680001C36.9194 0.680001 38.2394 0.680001 39.6794 0.680001C41.146 0.680001 42.6127 0.666668 44.0794 0.640001C45.546 0.613335 46.866 0.586669 48.0394 0.560002Z" fill="black"/>
<path d="M77.1181 0.560002V1.36C76.2648 1.46667 75.6115 1.69334 75.1581 2.04C74.7315 2.36 74.4515 2.88 74.3181 3.6C74.1848 4.32 74.1181 5.33333 74.1181 6.64V17.24C74.1181 18.9733 73.9981 20.56 73.7581 22C73.5181 23.44 73.0915 24.68 72.4781 25.72C71.7848 26.8667 70.7715 27.7733 69.4381 28.44C68.1048 29.1067 66.4115 29.44 64.3581 29.44C63.1315 29.44 61.8781 29.2933 60.5981 29C59.3181 28.7333 58.1715 28.2133 57.1581 27.44C56.3048 26.72 55.6515 25.9067 55.1981 25C54.7448 24.0933 54.4381 23.0267 54.2781 21.8C54.1181 20.5467 54.0381 19.0667 54.0381 17.36V4.8C54.0381 3.81333 53.9581 3.09333 53.7981 2.64C53.6648 2.16 53.3848 1.84 52.9581 1.68C52.5315 1.49333 51.8915 1.38667 51.0381 1.36V0.560002C51.7048 0.586669 52.5981 0.613335 53.7181 0.640001C54.8648 0.666668 56.0515 0.680001 57.2781 0.680001C58.5048 0.680001 59.6781 0.666668 60.7981 0.640001C61.9448 0.613335 62.8915 0.586669 63.6381 0.560002V1.36C62.7315 1.38667 62.0381 1.49333 61.5581 1.68C61.1048 1.84 60.7981 2.16 60.6381 2.64C60.4781 3.09333 60.3981 3.81333 60.3981 4.8V19.88C60.3981 21.2133 60.4781 22.4 60.6381 23.44C60.8248 24.4533 61.1181 25.3067 61.5181 26C61.9448 26.6667 62.5181 27.1733 63.2381 27.52C63.9581 27.8667 64.8515 28.04 65.9181 28.04C67.7848 28.04 69.2381 27.6 70.2781 26.72C71.3448 25.84 72.0915 24.6267 72.5181 23.08C72.9715 21.5067 73.1981 19.7067 73.1981 17.68V7.12C73.1981 5.65333 73.1048 4.53333 72.9181 3.76C72.7315 2.96 72.3581 2.38667 71.7981 2.04C71.2648 1.69334 70.4381 1.46667 69.3181 1.36V0.560002C69.8248 0.586669 70.4915 0.613335 71.3181 0.640001C72.1448 0.666668 72.9181 0.680001 73.6381 0.680001C74.2781 0.680001 74.9048 0.666668 75.5181 0.640001C76.1581 0.613335 76.6915 0.586669 77.1181 0.560002Z" fill="black"/>
<path d="M92.7763 0.560002C98.0296 0.560002 101.936 1.76 104.496 4.16C107.056 6.53333 108.336 9.94667 108.336 14.4C108.336 17.3067 107.71 19.8533 106.456 22.04C105.203 24.2 103.376 25.88 100.976 27.08C98.6029 28.28 95.7496 28.88 92.4163 28.88C91.9896 28.88 91.4296 28.8667 90.7363 28.84C90.0429 28.8133 89.3229 28.8 88.5762 28.8C87.8296 28.7733 87.1629 28.76 86.5762 28.76C85.4029 28.76 84.2429 28.7733 83.0962 28.8C81.9762 28.8 81.0829 28.8267 80.4163 28.88V28.08C81.2696 28.0267 81.9096 27.92 82.3363 27.76C82.7629 27.6 83.0429 27.28 83.1762 26.8C83.3362 26.32 83.4163 25.6 83.4163 24.64V4.8C83.4163 3.81333 83.3362 3.09333 83.1762 2.64C83.0429 2.16 82.7496 1.84 82.2962 1.68C81.8696 1.49333 81.2429 1.38667 80.4163 1.36V0.560002C81.0829 0.586669 81.9762 0.626668 83.0962 0.680001C84.2429 0.706667 85.3762 0.706667 86.4962 0.680001C87.4562 0.653334 88.5363 0.626668 89.7363 0.600002C90.9629 0.573335 91.9763 0.560002 92.7763 0.560002ZM92.7363 1.28C91.5096 1.28 90.7096 1.50667 90.3363 1.96C89.9629 2.41333 89.7762 3.33333 89.7762 4.72V24.72C89.7762 26.1067 89.9629 27.0267 90.3363 27.48C90.7363 27.9333 91.5496 28.16 92.7763 28.16C95.0163 28.16 96.7763 27.64 98.0563 26.6C99.3629 25.5333 100.296 23.9867 100.856 21.96C101.416 19.9333 101.696 17.4667 101.696 14.56C101.696 11.5733 101.39 9.10667 100.776 7.16C100.19 5.18667 99.2429 3.72 97.9362 2.76C96.6296 1.77333 94.8963 1.28 92.7363 1.28Z" fill="black"/>
<path d="M124.679 0.560002V1.36C123.826 1.38667 123.173 1.49333 122.719 1.68C122.293 1.84 122.013 2.16 121.879 2.64C121.746 3.09333 121.679 3.81333 121.679 4.8V24.64C121.679 25.6 121.746 26.32 121.879 26.8C122.039 27.28 122.333 27.6 122.759 27.76C123.186 27.92 123.826 28.0267 124.679 28.08V28.88C123.959 28.8267 123.053 28.8 121.959 28.8C120.866 28.7733 119.759 28.76 118.639 28.76C117.333 28.76 116.119 28.7733 114.999 28.8C113.906 28.8 113.013 28.8267 112.319 28.88V28.08C113.173 28.0267 113.813 27.92 114.239 27.76C114.666 27.6 114.946 27.28 115.079 26.8C115.239 26.32 115.319 25.6 115.319 24.64V4.8C115.319 3.81333 115.239 3.09333 115.079 2.64C114.946 2.16 114.653 1.84 114.199 1.68C113.773 1.49333 113.146 1.38667 112.319 1.36V0.560002C113.013 0.586669 113.906 0.613335 114.999 0.640001C116.119 0.666668 117.333 0.680001 118.639 0.680001C119.759 0.680001 120.866 0.666668 121.959 0.640001C123.053 0.613335 123.959 0.586669 124.679 0.560002Z" fill="black"/>
<path d="M142.766 0C145.593 0 148.059 0.573334 150.166 1.72C152.299 2.86667 153.953 4.52 155.126 6.68C156.299 8.81334 156.886 11.4133 156.886 14.48C156.886 17.4667 156.286 20.08 155.086 22.32C153.886 24.56 152.206 26.3067 150.046 27.56C147.913 28.8133 145.473 29.44 142.726 29.44C139.899 29.44 137.419 28.8667 135.286 27.72C133.179 26.5733 131.539 24.92 130.366 22.76C129.193 20.6 128.606 18 128.606 14.96C128.606 11.9733 129.206 9.36 130.406 7.12C131.633 4.88 133.299 3.13334 135.406 1.88C137.539 0.626667 139.993 0 142.766 0ZM142.606 0.72C141.113 0.72 139.806 1.32 138.686 2.52C137.593 3.72 136.739 5.37333 136.126 7.48C135.539 9.58667 135.246 12.0267 135.246 14.8C135.246 17.6267 135.579 20.0933 136.246 22.2C136.939 24.28 137.859 25.8933 139.006 27.04C140.179 28.16 141.473 28.72 142.886 28.72C144.379 28.72 145.673 28.12 146.766 26.92C147.886 25.72 148.739 24.0667 149.326 21.96C149.939 19.8267 150.246 17.3867 150.246 14.64C150.246 11.7867 149.899 9.32 149.206 7.24C148.539 5.16 147.619 3.56 146.446 2.44C145.299 1.29333 144.019 0.72 142.606 0.72Z" fill="black"/>
<path d="M171.261 8.04C171.501 8.09333 171.941 8.13333 172.581 8.16C173.221 8.18667 173.954 8.21334 174.781 8.24C175.607 8.24 176.421 8.24 177.221 8.24H188.501V9.08C187.994 10.28 187.341 11.5733 186.541 12.96C185.767 14.32 184.981 15.8133 184.181 17.44C183.407 19.04 182.754 20.7733 182.221 22.64C181.714 24.48 181.461 26.48 181.461 28.64C181.461 28.8 181.474 29.0933 181.501 29.52C181.554 29.9467 181.594 30.3733 181.621 30.8C181.647 31.2533 181.661 31.6133 181.661 31.88C181.661 32.6267 181.421 33.2933 180.941 33.88C180.461 34.4933 179.727 34.8 178.741 34.8C177.754 34.8 177.021 34.4667 176.541 33.8C176.061 33.1333 175.821 32.2933 175.821 31.28C175.821 29.8133 176.087 28.36 176.621 26.92C177.154 25.48 177.847 24.0667 178.701 22.68C179.554 21.2667 180.474 19.8933 181.461 18.56C182.447 17.2267 183.407 15.9467 184.341 14.72C185.301 13.4933 186.127 12.3333 186.821 11.24L185.901 13.08H174.941C173.847 13.08 173.154 13.2133 172.861 13.48C172.567 13.7467 172.367 14.2133 172.261 14.88H171.421C171.421 13.12 171.407 11.7333 171.381 10.72C171.354 9.68 171.314 8.78667 171.261 8.04Z" fill="black"/>
</svg>
